<svg width="75" height="75" viewBox="0 0 75 75" fill="none" xmlns="http://www.w3.org/2000/svg">
<path fill-rule="evenodd" clip-rule="evenodd" d="M54.5387 44.5001C53.6122 44.0391 49.0699 41.8175 48.2242 41.508C47.3786 41.2017 46.763 41.0501 46.1443 41.9722C45.5287 42.888 43.7596 44.9611 43.2218 45.5738C42.6808 46.1895 42.1429 46.2638 41.2195 45.8058C40.2962 45.3417 37.3177 44.3732 33.7889 41.242C31.0436 38.8038 29.1875 35.7931 28.6496 34.8711C28.1118 33.9521 28.5906 33.4539 29.0538 32.996C29.4704 32.5845 29.9772 31.9223 30.4404 31.387C30.9037 30.8487 31.056 30.465 31.3638 29.8493C31.6747 29.2366 31.5193 28.7013 31.2861 28.2403C31.056 27.7793 29.2093 23.2525 28.4382 21.4115C27.6889 19.62 26.9272 19.8644 26.3614 19.8335C25.8204 19.8087 25.2048 19.8025 24.5892 19.8025C23.9736 19.8025 22.9725 20.0315 22.1268 20.9535C21.2781 21.8725 18.8934 24.0972 18.8934 28.624C18.8934 33.1476 22.2015 37.5197 22.6647 38.1354C23.1279 38.7481 29.1782 48.0367 38.4463 52.0189C40.6537 52.9657 42.373 53.532 43.713 53.9528C45.9267 54.6551 47.9413 54.5561 49.5332 54.3179C51.3053 54.0549 54.9989 52.0932 55.7699 49.9458C56.5379 47.7985 56.5379 45.9575 56.3078 45.5738C56.0777 45.1901 55.4621 44.9611 54.5356 44.5001H54.5387ZM37.6814 67.4062H37.669C32.1642 67.4072 26.7605 65.9345 22.0242 63.1424L20.905 62.4803L9.27089 65.5187L12.3768 54.2312L11.6462 53.074C8.56867 48.1987 6.94001 42.5563 6.94842 36.7987C6.95464 19.9356 20.7402 6.21605 37.6939 6.21605C45.9018 6.21605 53.6185 9.40304 59.42 15.1829C62.2815 18.019 64.5495 21.3916 66.0928 25.1056C67.6362 28.8196 68.4242 32.8013 68.4114 36.8204C68.4051 53.6836 54.6196 67.4062 37.6814 67.4062ZM63.8348 10.7923C60.4092 7.36065 56.3334 4.63969 51.8435 2.7871C47.3535 0.934517 42.5388 -0.0128567 37.6783 -0.00011735C17.3016 -0.00011735 0.711655 16.5072 0.705437 36.7956C0.695995 43.2524 2.39793 49.5974 5.63951 55.1904L0.394531 74.2597L19.994 69.142C25.4158 72.0818 31.4916 73.6222 37.6659 73.6223H37.6814C58.0582 73.6223 74.6481 57.115 74.6543 36.8235C74.6694 31.9882 73.7209 27.1979 71.8637 22.7297C70.0066 18.2615 67.2777 14.2042 63.8348 10.7923Z" fill="#23C46E"/>
</svg>
